<mxfile host="Electron" modified="2023-04-27T12:09:26.291Z" agent="Mozilla/5.0 (Windows NT 10.0; Win64; x64) AppleWebKit/537.36 (KHTML, like Gecko) draw.io/21.2.1 Chrome/112.0.5615.87 Electron/24.1.2 Safari/537.36" etag="uH4lHkM6v7AA2VKYTUhD" version="21.2.1" type="device">
  <diagram name="Page-1" id="Z-wb2gNtwLOhCS0-J-pc">
    <mxGraphModel dx="1234" dy="726" grid="1" gridSize="10" guides="1" tooltips="1" connect="1" arrows="1" fold="1" page="0" pageScale="1" pageWidth="850" pageHeight="1100" math="0" shadow="0">
      <root>
        <mxCell id="0" />
        <mxCell id="1" parent="0" />
        <mxCell id="Jwdn6dMMMGBfEsykWMbw-2" value="&lt;font style=&quot;font-size: 20px;&quot;&gt;&lt;br&gt;&lt;/font&gt;" style="ellipse;whiteSpace=wrap;html=1;aspect=fixed;" parent="1" vertex="1">
          <mxGeometry x="409" y="180" width="130" height="130" as="geometry" />
        </mxCell>
        <mxCell id="Jwdn6dMMMGBfEsykWMbw-9" value="" style="endArrow=none;html=1;rounded=0;exitX=0.049;exitY=0.287;exitDx=0;exitDy=0;entryX=0.955;entryY=0.291;entryDx=0;entryDy=0;exitPerimeter=0;entryPerimeter=0;" parent="1" source="Jwdn6dMMMGBfEsykWMbw-2" target="Jwdn6dMMMGBfEsykWMbw-2" edge="1">
          <mxGeometry width="50" height="50" relative="1" as="geometry">
            <mxPoint x="420.18" y="217.46999999999997" as="sourcePoint" />
            <mxPoint x="527.95" y="217.85999999999996" as="targetPoint" />
          </mxGeometry>
        </mxCell>
        <mxCell id="Jwdn6dMMMGBfEsykWMbw-10" value="&lt;font style=&quot;font-size: 15px;&quot;&gt;1.0&lt;/font&gt;" style="text;html=1;strokeColor=none;fillColor=none;align=center;verticalAlign=middle;whiteSpace=wrap;rounded=0;" parent="1" vertex="1">
          <mxGeometry x="454" y="190" width="40" height="20" as="geometry" />
        </mxCell>
        <mxCell id="Jwdn6dMMMGBfEsykWMbw-11" value="&lt;font style=&quot;font-size: 13px;&quot;&gt;Registration&lt;br&gt;Process&lt;/font&gt;" style="text;html=1;strokeColor=none;fillColor=none;align=center;verticalAlign=middle;whiteSpace=wrap;rounded=0;" parent="1" vertex="1">
          <mxGeometry x="445" y="240" width="60" height="30" as="geometry" />
        </mxCell>
        <mxCell id="Jwdn6dMMMGBfEsykWMbw-12" value="&lt;font style=&quot;font-size: 13px;&quot;&gt;Student&lt;/font&gt;" style="rounded=0;whiteSpace=wrap;html=1;" parent="1" vertex="1">
          <mxGeometry x="40" y="215" width="120" height="60" as="geometry" />
        </mxCell>
        <mxCell id="Jwdn6dMMMGBfEsykWMbw-13" value="" style="endArrow=classic;html=1;rounded=0;exitX=1;exitY=0.25;exitDx=0;exitDy=0;entryX=0.014;entryY=0.389;entryDx=0;entryDy=0;entryPerimeter=0;" parent="1" source="Jwdn6dMMMGBfEsykWMbw-12" target="Jwdn6dMMMGBfEsykWMbw-2" edge="1">
          <mxGeometry width="50" height="50" relative="1" as="geometry">
            <mxPoint x="280" y="350" as="sourcePoint" />
            <mxPoint x="330" y="300" as="targetPoint" />
          </mxGeometry>
        </mxCell>
        <mxCell id="Jwdn6dMMMGBfEsykWMbw-14" value="" style="endArrow=classic;html=1;rounded=0;exitX=0.013;exitY=0.62;exitDx=0;exitDy=0;entryX=1;entryY=0.75;entryDx=0;entryDy=0;exitPerimeter=0;" parent="1" source="Jwdn6dMMMGBfEsykWMbw-2" target="Jwdn6dMMMGBfEsykWMbw-12" edge="1">
          <mxGeometry width="50" height="50" relative="1" as="geometry">
            <mxPoint x="409" y="270" as="sourcePoint" />
            <mxPoint x="130" y="270" as="targetPoint" />
          </mxGeometry>
        </mxCell>
        <mxCell id="Jwdn6dMMMGBfEsykWMbw-16" value="&lt;font style=&quot;font-size: 13px;&quot;&gt;Registers&lt;/font&gt;" style="text;html=1;strokeColor=none;fillColor=none;align=center;verticalAlign=middle;whiteSpace=wrap;rounded=0;" parent="1" vertex="1">
          <mxGeometry x="250" y="200" width="60" height="30" as="geometry" />
        </mxCell>
        <mxCell id="Jwdn6dMMMGBfEsykWMbw-20" value="&lt;font style=&quot;font-size: 13px;&quot;&gt;Gets UserID, Password&lt;/font&gt;" style="text;html=1;strokeColor=none;fillColor=none;align=center;verticalAlign=middle;whiteSpace=wrap;rounded=0;" parent="1" vertex="1">
          <mxGeometry x="220" y="260" width="150" height="30" as="geometry" />
        </mxCell>
        <mxCell id="Jwdn6dMMMGBfEsykWMbw-26" value="&lt;font style=&quot;font-size: 20px;&quot;&gt;&lt;br&gt;&lt;/font&gt;" style="ellipse;whiteSpace=wrap;html=1;aspect=fixed;" parent="1" vertex="1">
          <mxGeometry x="410" y="420" width="130" height="130" as="geometry" />
        </mxCell>
        <mxCell id="Jwdn6dMMMGBfEsykWMbw-27" value="" style="endArrow=none;html=1;rounded=0;exitX=0.049;exitY=0.287;exitDx=0;exitDy=0;entryX=0.955;entryY=0.291;entryDx=0;entryDy=0;exitPerimeter=0;entryPerimeter=0;" parent="1" source="Jwdn6dMMMGBfEsykWMbw-26" target="Jwdn6dMMMGBfEsykWMbw-26" edge="1">
          <mxGeometry width="50" height="50" relative="1" as="geometry">
            <mxPoint x="421.18" y="457.46999999999997" as="sourcePoint" />
            <mxPoint x="528.95" y="457.85999999999996" as="targetPoint" />
          </mxGeometry>
        </mxCell>
        <mxCell id="Jwdn6dMMMGBfEsykWMbw-28" value="&lt;font style=&quot;font-size: 15px;&quot;&gt;2.0&lt;/font&gt;" style="text;html=1;strokeColor=none;fillColor=none;align=center;verticalAlign=middle;whiteSpace=wrap;rounded=0;" parent="1" vertex="1">
          <mxGeometry x="455" y="430" width="40" height="20" as="geometry" />
        </mxCell>
        <mxCell id="Jwdn6dMMMGBfEsykWMbw-29" value="&lt;font style=&quot;font-size: 13px;&quot;&gt;Login&lt;br&gt;Process&lt;/font&gt;" style="text;html=1;strokeColor=none;fillColor=none;align=center;verticalAlign=middle;whiteSpace=wrap;rounded=0;" parent="1" vertex="1">
          <mxGeometry x="446" y="480" width="60" height="30" as="geometry" />
        </mxCell>
        <mxCell id="Jwdn6dMMMGBfEsykWMbw-30" value="" style="endArrow=classic;html=1;rounded=0;exitX=0.5;exitY=1;exitDx=0;exitDy=0;entryX=0;entryY=0.5;entryDx=0;entryDy=0;" parent="1" source="Jwdn6dMMMGBfEsykWMbw-12" target="Jwdn6dMMMGBfEsykWMbw-26" edge="1">
          <mxGeometry width="50" height="50" relative="1" as="geometry">
            <mxPoint x="360" y="460" as="sourcePoint" />
            <mxPoint x="410" y="410" as="targetPoint" />
          </mxGeometry>
        </mxCell>
        <mxCell id="Jwdn6dMMMGBfEsykWMbw-31" value="&lt;font style=&quot;font-size: 13px;&quot;&gt;Enters UserID, Password&lt;/font&gt;" style="text;html=1;strokeColor=none;fillColor=none;align=center;verticalAlign=middle;whiteSpace=wrap;rounded=0;rotation=35;" parent="1" vertex="1">
          <mxGeometry x="205" y="360" width="180" height="30" as="geometry" />
        </mxCell>
        <mxCell id="Jwdn6dMMMGBfEsykWMbw-36" value="&lt;font style=&quot;font-size: 20px;&quot;&gt;&lt;br&gt;&lt;/font&gt;" style="ellipse;whiteSpace=wrap;html=1;aspect=fixed;" parent="1" vertex="1">
          <mxGeometry x="409" y="680" width="130" height="130" as="geometry" />
        </mxCell>
        <mxCell id="Jwdn6dMMMGBfEsykWMbw-37" value="" style="endArrow=none;html=1;rounded=0;exitX=0.049;exitY=0.287;exitDx=0;exitDy=0;entryX=0.955;entryY=0.291;entryDx=0;entryDy=0;exitPerimeter=0;entryPerimeter=0;" parent="1" source="Jwdn6dMMMGBfEsykWMbw-36" target="Jwdn6dMMMGBfEsykWMbw-36" edge="1">
          <mxGeometry width="50" height="50" relative="1" as="geometry">
            <mxPoint x="420.18" y="717.47" as="sourcePoint" />
            <mxPoint x="527.95" y="717.8599999999999" as="targetPoint" />
          </mxGeometry>
        </mxCell>
        <mxCell id="Jwdn6dMMMGBfEsykWMbw-38" value="&lt;font style=&quot;font-size: 15px;&quot;&gt;2.0&lt;/font&gt;" style="text;html=1;strokeColor=none;fillColor=none;align=center;verticalAlign=middle;whiteSpace=wrap;rounded=0;" parent="1" vertex="1">
          <mxGeometry x="454" y="690" width="40" height="20" as="geometry" />
        </mxCell>
        <mxCell id="Jwdn6dMMMGBfEsykWMbw-39" value="&lt;span style=&quot;font-size: 13px;&quot;&gt;Model Test Process&lt;/span&gt;" style="text;html=1;strokeColor=none;fillColor=none;align=center;verticalAlign=middle;whiteSpace=wrap;rounded=0;" parent="1" vertex="1">
          <mxGeometry x="436.5" y="740" width="75" height="30" as="geometry" />
        </mxCell>
        <mxCell id="Jwdn6dMMMGBfEsykWMbw-41" value="" style="endArrow=classic;html=1;rounded=0;exitX=0.5;exitY=1;exitDx=0;exitDy=0;entryX=0;entryY=0;entryDx=0;entryDy=0;" parent="1" source="Jwdn6dMMMGBfEsykWMbw-12" target="Jwdn6dMMMGBfEsykWMbw-36" edge="1">
          <mxGeometry width="50" height="50" relative="1" as="geometry">
            <mxPoint x="530" y="640" as="sourcePoint" />
            <mxPoint x="580" y="590" as="targetPoint" />
            <Array as="points">
              <mxPoint x="100" y="700" />
            </Array>
          </mxGeometry>
        </mxCell>
        <mxCell id="Jwdn6dMMMGBfEsykWMbw-42" value="Display Model Test" style="text;html=1;strokeColor=none;fillColor=none;align=center;verticalAlign=middle;whiteSpace=wrap;rounded=0;rotation=0;" parent="1" vertex="1">
          <mxGeometry x="165" y="750" width="180" height="30" as="geometry" />
        </mxCell>
        <mxCell id="Jwdn6dMMMGBfEsykWMbw-43" value="" style="endArrow=classic;html=1;rounded=0;exitX=0;exitY=0.5;exitDx=0;exitDy=0;entryX=0.25;entryY=1;entryDx=0;entryDy=0;" parent="1" source="Jwdn6dMMMGBfEsykWMbw-36" target="Jwdn6dMMMGBfEsykWMbw-12" edge="1">
          <mxGeometry width="50" height="50" relative="1" as="geometry">
            <mxPoint x="360" y="775" as="sourcePoint" />
            <mxPoint x="60" y="280" as="targetPoint" />
            <Array as="points">
              <mxPoint x="70" y="745" />
            </Array>
          </mxGeometry>
        </mxCell>
        <mxCell id="Jwdn6dMMMGBfEsykWMbw-44" value="Clicks at Take a Test Button" style="text;html=1;strokeColor=none;fillColor=none;align=center;verticalAlign=middle;whiteSpace=wrap;rounded=0;rotation=0;" parent="1" vertex="1">
          <mxGeometry x="170" y="670" width="170" height="30" as="geometry" />
        </mxCell>
        <mxCell id="Jwdn6dMMMGBfEsykWMbw-48" value="" style="endArrow=classic;html=1;rounded=0;exitX=0.987;exitY=0.387;exitDx=0;exitDy=0;entryX=-0.001;entryY=0.298;entryDx=0;entryDy=0;entryPerimeter=0;exitPerimeter=0;" parent="1" source="Jwdn6dMMMGBfEsykWMbw-2" target="Jwdn6dMMMGBfEsykWMbw-58" edge="1">
          <mxGeometry width="50" height="50" relative="1" as="geometry">
            <mxPoint x="539" y="230" as="sourcePoint" />
            <mxPoint x="790" y="231" as="targetPoint" />
          </mxGeometry>
        </mxCell>
        <mxCell id="Jwdn6dMMMGBfEsykWMbw-49" value="" style="endArrow=classic;html=1;rounded=0;exitX=0;exitY=0.713;exitDx=0;exitDy=0;entryX=0.994;entryY=0.608;entryDx=0;entryDy=0;exitPerimeter=0;entryPerimeter=0;" parent="1" source="Jwdn6dMMMGBfEsykWMbw-58" target="Jwdn6dMMMGBfEsykWMbw-2" edge="1">
          <mxGeometry width="50" height="50" relative="1" as="geometry">
            <mxPoint x="790" y="260" as="sourcePoint" />
            <mxPoint x="539" y="259" as="targetPoint" />
          </mxGeometry>
        </mxCell>
        <mxCell id="Jwdn6dMMMGBfEsykWMbw-58" value="&lt;font style=&quot;font-size: 13px;&quot;&gt;Registration&lt;/font&gt;" style="html=1;dashed=0;whiteSpace=wrap;shape=partialRectangle;right=0;" parent="1" vertex="1">
          <mxGeometry x="790" y="210" width="150" height="70" as="geometry" />
        </mxCell>
        <mxCell id="Jwdn6dMMMGBfEsykWMbw-60" value="&lt;font style=&quot;font-size: 13px;&quot;&gt;Displays ID&lt;/font&gt;" style="text;html=1;strokeColor=none;fillColor=none;align=center;verticalAlign=middle;whiteSpace=wrap;rounded=0;" parent="1" vertex="1">
          <mxGeometry x="650" y="260" width="90" height="30" as="geometry" />
        </mxCell>
        <mxCell id="Jwdn6dMMMGBfEsykWMbw-61" value="&lt;font style=&quot;font-size: 13px;&quot;&gt;Posts Details&lt;/font&gt;" style="text;html=1;strokeColor=none;fillColor=none;align=center;verticalAlign=middle;whiteSpace=wrap;rounded=0;" parent="1" vertex="1">
          <mxGeometry x="650" y="203" width="90" height="30" as="geometry" />
        </mxCell>
        <mxCell id="Jwdn6dMMMGBfEsykWMbw-62" value="" style="endArrow=classic;html=1;rounded=0;exitX=0.989;exitY=0.385;exitDx=0;exitDy=0;entryX=-0.001;entryY=0.299;entryDx=0;entryDy=0;entryPerimeter=0;exitPerimeter=0;" parent="1" source="Jwdn6dMMMGBfEsykWMbw-26" target="Jwdn6dMMMGBfEsykWMbw-64" edge="1">
          <mxGeometry width="50" height="50" relative="1" as="geometry">
            <mxPoint x="539" y="469.87" as="sourcePoint" />
            <mxPoint x="792" y="470.87" as="targetPoint" />
          </mxGeometry>
        </mxCell>
        <mxCell id="Jwdn6dMMMGBfEsykWMbw-63" value="" style="endArrow=classic;html=1;rounded=0;exitX=0.001;exitY=0.715;exitDx=0;exitDy=0;entryX=0.991;entryY=0.607;entryDx=0;entryDy=0;exitPerimeter=0;entryPerimeter=0;" parent="1" source="Jwdn6dMMMGBfEsykWMbw-64" target="Jwdn6dMMMGBfEsykWMbw-26" edge="1">
          <mxGeometry width="50" height="50" relative="1" as="geometry">
            <mxPoint x="792" y="499.87" as="sourcePoint" />
            <mxPoint x="540" y="498.87" as="targetPoint" />
          </mxGeometry>
        </mxCell>
        <mxCell id="Jwdn6dMMMGBfEsykWMbw-64" value="&lt;font style=&quot;font-size: 13px;&quot;&gt;Registration&lt;/font&gt;" style="html=1;dashed=0;whiteSpace=wrap;shape=partialRectangle;right=0;" parent="1" vertex="1">
          <mxGeometry x="792" y="450" width="150" height="70" as="geometry" />
        </mxCell>
        <mxCell id="Jwdn6dMMMGBfEsykWMbw-65" value="&lt;font style=&quot;font-size: 13px;&quot;&gt;Check ID, Password&lt;/font&gt;" style="text;html=1;strokeColor=none;fillColor=none;align=center;verticalAlign=middle;whiteSpace=wrap;rounded=0;" parent="1" vertex="1">
          <mxGeometry x="615" y="500" width="140" height="30" as="geometry" />
        </mxCell>
        <mxCell id="Jwdn6dMMMGBfEsykWMbw-67" value="&lt;font style=&quot;font-size: 13px;&quot;&gt;Confirms Login&lt;/font&gt;" style="text;html=1;strokeColor=none;fillColor=none;align=center;verticalAlign=middle;whiteSpace=wrap;rounded=0;" parent="1" vertex="1">
          <mxGeometry x="630" y="440" width="110" height="30" as="geometry" />
        </mxCell>
        <mxCell id="Jwdn6dMMMGBfEsykWMbw-73" value="" style="endArrow=classic;html=1;rounded=0;exitX=0.989;exitY=0.385;exitDx=0;exitDy=0;entryX=-0.001;entryY=0.299;entryDx=0;entryDy=0;entryPerimeter=0;exitPerimeter=0;" parent="1" target="Jwdn6dMMMGBfEsykWMbw-75" edge="1">
          <mxGeometry width="50" height="50" relative="1" as="geometry">
            <mxPoint x="537" y="730" as="sourcePoint" />
            <mxPoint x="790" y="730.87" as="targetPoint" />
          </mxGeometry>
        </mxCell>
        <mxCell id="Jwdn6dMMMGBfEsykWMbw-74" value="" style="endArrow=classic;html=1;rounded=0;exitX=0.001;exitY=0.715;exitDx=0;exitDy=0;entryX=0.991;entryY=0.607;entryDx=0;entryDy=0;exitPerimeter=0;entryPerimeter=0;" parent="1" source="Jwdn6dMMMGBfEsykWMbw-75" edge="1">
          <mxGeometry width="50" height="50" relative="1" as="geometry">
            <mxPoint x="790" y="759.87" as="sourcePoint" />
            <mxPoint x="537" y="759" as="targetPoint" />
          </mxGeometry>
        </mxCell>
        <mxCell id="Jwdn6dMMMGBfEsykWMbw-75" value="&lt;font style=&quot;font-size: 13px;&quot;&gt;Questions&lt;/font&gt;" style="html=1;dashed=0;whiteSpace=wrap;shape=partialRectangle;right=0;" parent="1" vertex="1">
          <mxGeometry x="790" y="710" width="150" height="70" as="geometry" />
        </mxCell>
        <mxCell id="Jwdn6dMMMGBfEsykWMbw-76" value="&lt;font style=&quot;font-size: 13px;&quot;&gt;Retrieve model questions&lt;/font&gt;" style="text;html=1;strokeColor=none;fillColor=none;align=center;verticalAlign=middle;whiteSpace=wrap;rounded=0;" parent="1" vertex="1">
          <mxGeometry x="600" y="760" width="153" height="30" as="geometry" />
        </mxCell>
        <mxCell id="Jwdn6dMMMGBfEsykWMbw-77" value="&lt;font style=&quot;font-size: 13px;&quot;&gt;Posts Query&lt;/font&gt;" style="text;html=1;strokeColor=none;fillColor=none;align=center;verticalAlign=middle;whiteSpace=wrap;rounded=0;" parent="1" vertex="1">
          <mxGeometry x="628" y="700" width="110" height="30" as="geometry" />
        </mxCell>
      </root>
    </mxGraphModel>
  </diagram>
</mxfile>
